<svg id="圖層_1" data-name="圖層 1" xmlns="http://www.w3.org/2000/svg" viewBox="0 0 144.9 124.62"><defs><style>.cls-1,.cls-3{fill:none;stroke:#fff;stroke-miterlimit:10;}.cls-1{stroke-width:6px;}.cls-2{fill:#fff;}.cls-3{stroke-width:3px;}</style></defs><title>未命名-1</title><path class="cls-1" d="M691.92,305.17v11l-51,29.42-51-29.42V257.33l51-29.42,40.93,23.63" transform="translate(-587 -224.44)"/><path class="cls-2" d="M604.46,275.87h4.72l4.18,14.62c1,3.22,1.58,6,2.57,9.25h.2c1-3.26,1.65-6,2.57-9.25l4.18-14.62h4.52l-8.82,28.24h-5.25Z" transform="translate(-587 -224.44)"/><path class="cls-2" d="M628.48,293.6c0-6.87,4.68-11.13,9.63-11.13,5.6,0,8.59,4,8.59,10a11.82,11.82,0,0,1-.19,2.22h-13.7c.35,4,2.88,6.45,6.52,6.45a9,9,0,0,0,5-1.58l1.53,2.8a12.73,12.73,0,0,1-7.13,2.23C633,304.61,628.48,300.54,628.48,293.6Zm14.42-1.92c0-3.64-1.65-5.75-4.72-5.75-2.64,0-5,2-5.41,5.75Z" transform="translate(-587 -224.44)"/><path class="cls-2" d="M651.65,273.53H656v8.1l-.15,4.18c1.84-1.76,4-3.34,6.83-3.34,4.48,0,6.48,3,6.48,8.37v13.27h-4.41V291.37c0-3.64-1.08-5.1-3.57-5.1-2,0-3.3,1-5.18,2.88v15h-4.37Z" transform="translate(-587 -224.44)"/><path class="cls-2" d="M674.85,276.45a2.83,2.83,0,0,1,5.64,0,2.83,2.83,0,0,1-5.64,0Zm.62,6.56h4.37v21.1h-4.37Z" transform="translate(-587 -224.44)"/><path class="cls-2" d="M703.74,299.16V273.53h4.37v25.86c0,1.19.54,1.61,1.08,1.61a3.4,3.4,0,0,0,.73-.07l.57,3.33a6.86,6.86,0,0,1-2.38.35C704.93,304.61,703.74,302.58,703.74,299.16Z" transform="translate(-587 -224.44)"/><path class="cls-2" d="M713.67,293.6c0-6.87,4.68-11.13,9.63-11.13,5.6,0,8.6,4,8.6,10a10.93,10.93,0,0,1-.2,2.22H718c.34,4,2.88,6.45,6.52,6.45a9,9,0,0,0,5-1.58l1.53,2.8a12.76,12.76,0,0,1-7.13,2.23C718.24,304.61,713.67,300.54,713.67,293.6Zm14.43-1.92c0-3.64-1.65-5.75-4.72-5.75-2.65,0-5,2-5.41,5.75Z" transform="translate(-587 -224.44)"/><polyline class="cls-3" points="33.2 25.28 53.96 13.29 94.89 36.92"/><line class="cls-3" x1="54.51" y1="110.97" x2="13.58" y2="87.34"/></svg>