<svg xmlns="http://www.w3.org/2000/svg" viewBox="0 0 699.78 193.33"><defs><style>.cls-1{fill:#cee7d4;}.cls-2{fill:#434948;}.cls-3{fill:none;stroke:#cee7d4;stroke-miterlimit:10;stroke-width:4px;}.cls-4{fill:#231815;}</style></defs><title>img1</title><g id="圖層_2" data-name="圖層 2"><g id="圖層_1-2" data-name="圖層 1"><circle class="cls-1" cx="94.66" cy="96.66" r="94.66"/><path class="cls-2" d="M58.78,93.13h-6a41.62,41.62,0,0,1,6,3.55L56,99.56A48.42,48.42,0,0,0,48.84,95l1.93-1.9h-6l2.35,1.76a48.49,48.49,0,0,1-8.81,4.53,17.55,17.55,0,0,0-2.57-2.81,34.37,34.37,0,0,0,7-3.48H37V91.34c-3.38,1.37-7,2.74-9.87,3.83L25.62,91c1.12-.28,2.46-.7,4-1.19V78.73H26.11v-4h3.48V67.17h3.93v7.59h3.62v4H33.52v9.8l3.24-1.09.38,2.14h2.6V74.52h5.09c.11-.57.21-1.16.29-1.76h-7V69.42h7.45c.1-1,.17-1.82.24-2.63l4.46.14c-.14.81-.31,1.65-.52,2.49h8.15v3.34H49c-.14.6-.28,1.19-.46,1.76H56V89.58h2.74Zm-15.39-16v1.48h8.89V77.15Zm8.89,3.62H43.39v1.4h8.89Zm-8.89,5.06h8.89V84.39H43.39Zm0,3.75h8.89V88.07H43.39Z"/><path class="cls-2" d="M91.66,87.34s0,1-.07,1.47c-.28,5.76-.7,8.29-1.58,9.24a3.68,3.68,0,0,1-2.63,1.23,28.87,28.87,0,0,1-4.43.07,8.7,8.7,0,0,0-1-3.58,28,28,0,0,0,3.44.14,1.43,1.43,0,0,0,1.16-.35c.42-.46.67-1.8.91-4.92H70c-.35.28-.7.56-1,.81l2.67,1a20.62,20.62,0,0,1-2.78,6.22l-3.37-1.47A18,18,0,0,0,68.06,92a30.83,30.83,0,0,1-4.46,2.43,24.36,24.36,0,0,0-2.43-3.23,21.06,21.06,0,0,0,8.72-5.52H66.48V75.25A41.65,41.65,0,0,0,74.63,73l2.42,2.56a51.79,51.79,0,0,1-6.85,1.76v1.44H76v2.74H70.2v1.4H84.53v-1.4H78.77V78.77h5.76V77.4H78.18V74.59H88.33V85.72H74.49a17.8,17.8,0,0,1-1.16,1.62Zm1-18.23v7.2H88.68V72.69H66.06v3.62h-3.8v-7.2H74.87a11.83,11.83,0,0,0-.66-1.55l4.25-1.19a22.59,22.59,0,0,1,1.37,2.74ZM75.33,91.66a19.54,19.54,0,0,1,1,6.14l-3.3.46A22.27,22.27,0,0,0,72.24,92Zm4.11-.25a17.19,17.19,0,0,1,1.9,5.06l-3.09.84a19.42,19.42,0,0,0-1.66-5.2ZM83,95.52A13.42,13.42,0,0,0,80.77,92l2.67-1.13a12.52,12.52,0,0,1,2.43,3.38Z"/><path class="cls-2" d="M107.83,89.76a42.26,42.26,0,0,0-2.35-4.36V99.49h-4V87a32.35,32.35,0,0,1-3.76,6.85,23.5,23.5,0,0,0-1.93-4,33,33,0,0,0,5.12-9.41h-4.7v-3.9h5.27v-4c-1.34.21-2.64.42-3.9.56a12.06,12.06,0,0,0-1.13-3.23A51.38,51.38,0,0,0,107.79,67l2.32,3.41a37.88,37.88,0,0,1-4.63,1.37v4.78h4.35v3.9h-4.35v.42a71.67,71.67,0,0,1,4.74,5.62Zm21,4.81v3.87H108.21V94.57h3.31V68.44h14.36V94.57ZM115.56,72.3V77h6.07V72.3Zm6.07,8.5h-6.07v4.92h6.07Zm-6.07,13.77h6.07V89.48h-6.07Z"/><path class="cls-2" d="M163.72,94.78h-14v4.74h-4.29V94.78H131.83V91h13.59V89.13H135.3V75h10.12V73.36H132.67v-3.8h12.75V66.72h4.29v2.84h13v3.8h-13V75h10.36V89.13H149.71V91h14ZM139.31,80.52h6.11V78.38h-6.11Zm6.11,5.27V83.65h-6.11v2.14Zm4.29-7.41v2.14h6.14V78.38Zm6.14,5.27h-6.14v2.14h6.14Z"/><path class="cls-2" d="M83.37,115.09c1.9,1.87,5.62,2.74,10.37,3a13.35,13.35,0,0,0-2.32,3.34c-3.94-.49-7-1.62-9.2-3.55-1.34,1.54-4.25,2.91-10.16,3.58a11.81,11.81,0,0,0-1.4-2.28H61.35V116H72v2.15c6.71-.71,7.59-2.29,7.59-3.59V114H77.44A15.69,15.69,0,0,1,75,117a20.15,20.15,0,0,0-3.09-2.15A14.12,14.12,0,0,0,76,108.63l3.65.81c-.17.53-.39,1-.6,1.54H89l.63-.17,2.85.88a31.67,31.67,0,0,1-3.23,5.55L86,116a19.41,19.41,0,0,0,1.23-2h-3.9v1.08Zm.95,20.66c3.23,1.19,6.68,2.6,8.75,3.62l-3.76,2.24a64.94,64.94,0,0,0-9.13-4.14l2.14-1.72h-9.9l3,1.4a45.27,45.27,0,0,1-11,4.57,28.84,28.84,0,0,0-3.09-3.06A40,40,0,0,0,71,135.75H66V121.49h23.5v14.26ZM71.15,113.62h-9v-3.06h9ZM70,125.49H85.2V124H70Zm0,3.87H85.2v-1.51H70Zm0,3.93H85.2v-1.58H70Z"/><path class="cls-2" d="M109.27,117.94H96.41v-3.3H102a32.62,32.62,0,0,0-2.07-4.43l3-1.51a38,38,0,0,1,2.36,4.67l-2.15,1.27h6.15Zm-11.42,4.74v-3.16H108v3.16Zm0,1.55h10.26v3.16H97.85Zm10.26,15.49h-7v1.47H97.89V129.07h10.22Zm-7-7.31v3.94h3.73v-3.94Zm24.45-21.78c-.31,11.56-.28,26,1,26.38.18.07.35-2.21.46-4.46a18.91,18.91,0,0,0,2.18,3.37c-.53,5.13-2.32,6.22-4.5,5.31-3.34-1.41-3.37-13.56-3.34-26.63H117.1v9.28h3.37v3.89H117.1v13.84h-3.9V127.77h-3.93v-3.89h3.93V114.6h-3.44v-4Z"/><circle class="cls-3" cx="348.89" cy="96.66" r="94.66"/><path class="cls-2" d="M289.93,102.23c-.07-.46-.14-1-.25-1.55-6.36.92-7.51,1.27-8.29,1.62A31.81,31.81,0,0,0,280,98.54c1-.25,1.72-1,2.85-2.32.38-.49,1.19-1.44,2.11-2.77a13.15,13.15,0,0,0-3.87.77,32.61,32.61,0,0,0-1.3-3.62c.7-.17,1.27-.84,2-1.86a37.81,37.81,0,0,0,3.9-8.5l3.79,1.58a48.4,48.4,0,0,1-4.53,8.25l2.35-.17a40.3,40.3,0,0,0,2.5-4.67l3.54,2.18a57.27,57.27,0,0,1-4.67,7.23l2.6-.74a44.11,44.11,0,0,1,1.86,7.31Zm-5.27,1.68a42.79,42.79,0,0,1-1.58,8.89,23.73,23.73,0,0,0-3.09-1.09,30.83,30.83,0,0,0,1.47-8.29Zm3.48-.56a67.11,67.11,0,0,1,.77,7.45l-3.09.53a63.81,63.81,0,0,0-.6-7.45Zm.84-5.86c-.18-.85-.42-1.69-.63-2.43-.74,1-1.51,1.9-2.29,2.78Zm2.46,4.84a41.42,41.42,0,0,1,1.44,4.85l-2.85.95a34.06,34.06,0,0,0-1.33-4.92Zm9.8-2.6c-1.16,5.45-3.76,9.49-7.41,11.74a15.11,15.11,0,0,0-2.36-2.92,12.54,12.54,0,0,0,5.13-6.18h-3.16V99h4.67l.63-.11Zm11.45.25c-1.62,1.26-3.2,2.63-4.64,3.69a14.38,14.38,0,0,0,5.13,4.85,15.8,15.8,0,0,0-2.74,3.33,16.91,16.91,0,0,1-5.06-5.86v3c0,1.86-.31,2.88-1.54,3.55s-2.81.66-5.06.66a15.48,15.48,0,0,0-1.12-3.83c1.3.07,2.74.07,3.16,0s.59-.11.59-.49V96.85h-6.7V84.07h5a34.53,34.53,0,0,0,1.13-3.72l4.77.84c-.52,1-1.08,2-1.58,2.88h7.52V96.85h-6.15V98a29.84,29.84,0,0,0,1.06,2.81,29.58,29.58,0,0,0,3.12-3.41ZM298.57,89h8.92V87.19h-8.92Zm0,4.78h8.92V91.87h-8.92Z"/><path class="cls-2" d="M347.65,107.22v4.21H315.72v-4.21h12.57V80.77h4.5v10h12.4v4.25h-12.4v12.16Z"/><path class="cls-2" d="M362.76,81.86A64.71,64.71,0,0,1,359.42,89v24.13h-4.28V95.48c-.81,1-1.66,2-2.46,2.81a34.89,34.89,0,0,0-2.46-4.35,36.9,36.9,0,0,0,8.39-13.42Zm20.41,10.25H379.3v16c0,2.7-.63,3.79-2.32,4.43s-4.35.73-8.22.7a16.45,16.45,0,0,0-1.61-4.15c2.7.11,5.79.11,6.6.07s1.2-.28,1.2-1v-16H361.56V87.9H375V80.73h4.35V87.9h3.87Zm-15.49,12.68a83.46,83.46,0,0,0-4.54-8.43l3.73-1.72c1.58,2.57,3.76,6,4.81,8.12Z"/><path class="cls-2" d="M391.15,103.32a38.91,38.91,0,0,1-2.81,7.41,24.06,24.06,0,0,0-3.2-1.37,31.07,31.07,0,0,0,2.6-6.85Zm5.09-1.48v11.31h-3.93V101.84h-6.78V98.4h17.24v3.44Zm-4-15.28H386v-3.4h6.29V80.59h3.9v2.57h6.18v3.4h-6.18v1.79h5.41v3.38H386.86V88.35h5.41Zm9.13,7c1.83-3.37,2.92-8.26,3.45-13.17l4,.56c-.24,1.93-.56,3.86-.94,5.69h6.95l.6-.14,2.91.77a78.14,78.14,0,0,1-2.6,10l-3.37-1a57.85,57.85,0,0,0,1.34-5.8H407A29.82,29.82,0,0,1,404,97.38a22.83,22.83,0,0,0-2.63-2.07v1.44h-14.3V93.38h14.3Zm-1.12,8.85a36.53,36.53,0,0,1,2.28,5.37l-3.26,1.41a44.08,44.08,0,0,0-2.11-5.59Zm11.06-7.94c0,1,0,2.07-.1,3.27,1.16,5.23,3.48,9.73,7.45,11.8a15.17,15.17,0,0,0-2.78,3.55,16.38,16.38,0,0,1-6.18-8.12,20.19,20.19,0,0,1-5.52,8.29,13.4,13.4,0,0,0-3.16-2.84c5.8-5,6.32-11.7,6.32-16V92.74h4Z"/><circle class="cls-3" cx="603.12" cy="96.66" r="94.66"/><path class="cls-2" d="M559.57,96.43a25.47,25.47,0,0,1-5.55,8.26,31.47,31.47,0,0,0,12.75,4.49,15.77,15.77,0,0,0-2.52,3.76,31.62,31.62,0,0,1-13.49-5.51,39.4,39.4,0,0,1-13.42,5.69,24.08,24.08,0,0,0-2.53-3.73,35.26,35.26,0,0,0,12.86-4.77,28,28,0,0,1-5.13-8.08l3.76-1.16a20,20,0,0,0,4.49,6.74,18.06,18.06,0,0,0,4.57-6.92ZM547.7,90.71a37.29,37.29,0,0,1-9.31,8.18,30,30,0,0,0-3.3-3,28.14,28.14,0,0,0,8.57-6.68Zm18.44-1.86h-30.8V84.77H549a30.08,30.08,0,0,0-1.8-3.48l4-1.4a27.62,27.62,0,0,1,2.56,4.85l-.1,0h12.43Zm-8.74.1c3,2.07,7.09,5.16,9,7.41l-3.58,2.71a53.33,53.33,0,0,0-8.75-7.77Z"/><path class="cls-2" d="M600.47,98.19s-.07,1.12-.14,1.65c-.74,7.59-1.55,10.78-2.71,11.94a4.07,4.07,0,0,1-2.84,1.34c-1,.1-2.64.1-4.39.07a7.93,7.93,0,0,0-1.09-3.55c1.47.14,2.84.14,3.47.14s1,0,1.3-.42c.67-.63,1.37-2.78,1.87-7.52h-3a29,29,0,0,1-8,11.56,22.8,22.8,0,0,0-3.3-2.57,21.44,21.44,0,0,0,7-9h-3a32.23,32.23,0,0,1-10.46,10.54,23.64,23.64,0,0,0-3.09-3,24.54,24.54,0,0,0,8.85-7.55h-3.06a33.21,33.21,0,0,1-5.44,4.25,29.49,29.49,0,0,0-3.16-3,25.77,25.77,0,0,0,8.43-7.09h-3.1V81.82h23.12V96.05H582.52c-.46.73-.95,1.44-1.48,2.14ZM578.65,87.37h14.76V85.19H578.65Zm0,5.34h14.76V90.5H578.65Z"/><path class="cls-2" d="M632.09,108.83c1.12,0,1.3-.6,1.47-4.21a12.6,12.6,0,0,0,3.76,1.58c-.46,5.09-1.54,6.46-4.85,6.46h-4.39c-4.07,0-5.06-1.26-5.06-5.06v-6.74h-4.7c-.46,6.71-2.11,10.47-11.38,12.29a11.3,11.3,0,0,0-2.22-3.55c7.94-1.3,9-3.68,9.31-8.74h-8.67V96.92h31.29v3.94h-9.37v6.71c0,1.12.21,1.26,1.44,1.26ZM610.17,92.67H606V84h12.83c-.36-.95-.78-1.89-1.2-2.74L621.94,80a25.54,25.54,0,0,1,1.89,4H636v8.71h-4.39V88H610.17Zm1.61,1.69V90.5h18.16v3.86Z"/><path class="cls-2" d="M670.35,92.57a40.79,40.79,0,0,1-6.05,12.05c1,2.53,2.15,4,3.27,4,.84,0,1.27-1.75,1.44-6.15a11.4,11.4,0,0,0,3.55,2.36c-.67,6.5-2.07,8-5.34,8-2.46,0-4.39-1.75-5.94-4.64a29.2,29.2,0,0,1-5.93,4.78,27.56,27.56,0,0,0-3-3.44,26.92,26.92,0,0,0,7.16-5.69,73.2,73.2,0,0,1-2.42-14.16H646.88v3.76h8.68s0,1.09,0,1.58c-.1,7.38-.31,10.51-1.12,11.52A3.3,3.3,0,0,1,652,108a27.22,27.22,0,0,1-4,.1,9.5,9.5,0,0,0-1.16-3.89c1.26.1,2.46.14,3,.14a1.12,1.12,0,0,0,1.05-.43c.35-.49.49-2.17.6-6.6h-4.57c-.14,5.13-.88,12-3.76,16.26a18.47,18.47,0,0,0-3.54-2.84c2.67-4.22,2.91-10.33,2.91-14.89V85.58h14.33c-.07-1.72-.14-3.44-.14-5.2h4.39c0,1.76,0,3.48.07,5.2h5.38a43.42,43.42,0,0,0-4.5-3.06L664.55,80a29.31,29.31,0,0,1,5.73,3.76l-1.69,1.79h3.65v4.14H661.39a85.31,85.31,0,0,0,1.4,9.63,36,36,0,0,0,3.38-7.8Z"/><polygon class="cls-4" points="216.99 85.27 231.76 100.03 216.99 114.8 216.99 85.27"/><polygon class="cls-4" points="468.62 85.27 483.38 100.03 468.62 114.8 468.62 85.27"/></g></g></svg>