<svg id="圖層_1" data-name="圖層 1" xmlns="http://www.w3.org/2000/svg" viewBox="0 0 50 50"><defs><style>.cls-1{fill:#fff;}</style></defs><title>fblogo</title><path class="cls-1" d="M592,247.36v39.28a5.36,5.36,0,0,1-5.36,5.36h-9.48V272.25H584l1-7.59h-7.78v-4.82c0-2.18.6-3.67,3.73-3.67h4v-6.72a53.61,53.61,0,0,0-5.82-.3c-5.75,0-9.7,3.51-9.7,10v5.56h-6.8v7.59h6.8V292h-22a5.36,5.36,0,0,1-5.36-5.36V247.36a5.36,5.36,0,0,1,5.36-5.36h39.28A5.36,5.36,0,0,1,592,247.36Z" transform="translate(-542 -242)"/></svg>