<svg id="圖層_1" data-name="圖層 1" xmlns="http://www.w3.org/2000/svg" viewBox="0 0 50 50"><defs><style>.cls-1{fill:#fff;}</style></defs><title>ttlogo</title><path class="cls-1" d="M586.64,190H547.36a5.36,5.36,0,0,0-5.36,5.36v39.28a5.36,5.36,0,0,0,5.36,5.36h39.28a5.36,5.36,0,0,0,5.36-5.36V195.36A5.36,5.36,0,0,0,586.64,190Zm-5.45,17.67c0,.31,0,.64,0,1,0,9.68-7.37,20.83-20.83,20.83a20.72,20.72,0,0,1-11.24-3.29,15.12,15.12,0,0,0,10.85-3,7.34,7.34,0,0,1-6.84-5.08,7.85,7.85,0,0,0,3.3-.13,7.32,7.32,0,0,1-5.86-7.19v-.09a7.35,7.35,0,0,0,3.31.93,7.35,7.35,0,0,1-2.27-9.79,20.79,20.79,0,0,0,15.09,7.65,7.34,7.34,0,0,1,12.49-6.68,14.39,14.39,0,0,0,4.64-1.76,7.24,7.24,0,0,1-3.21,4,14.39,14.39,0,0,0,4.22-1.13A15.73,15.73,0,0,1,581.19,207.67Z" transform="translate(-542 -190)"/></svg>